# xmcd
#
# Track frame offsets: 
#        150
#        17500
#        36015
#        59592
#        78530
#        97717
#        112302
#        135995
#        165225
#        184285
#        198465
#
# Disc length: 2884 seconds
#
# Revision: 0
# Processed by: cddbd v1.5.2PL0 Copyright (c) Steve Scherf et al.
# Submitted via: ExactAudioCopy v0.95b2
#
DISCID=890b420b
DTITLE=Little Eva and The Works - Tasty Blues
DYEAR=1993
DGENRE=Blues
TTITLE0=Leave This Town And Cry
TTITLE1=Blues Bent And Grave Bound
TTITLE2=The Devil Must Have Made You
TTITLE3=It Would Be Nice
TTITLE4=Have Blues - Will Travel
TTITLE5=Walking By Myself
TTITLE6=Starin' At The Ceiling
TTITLE7=I Never Believed
TTITLE8=Shadows On The Wall
TTITLE9=Someday I'll Have My Peace Of Mind
TTITLE10=Leave This Town And Cry (Reprise)
EXTD=
EXTT0=
EXTT1=
EXTT2=
EXTT3=
EXTT4=
EXTT5=
EXTT6=
EXTT7=
EXTT8=
EXTT9=
EXTT10=
PLAYORDER=
